<?xml version="1.0" standalone="no"?>
<!DOCTYPE svg PUBLIC "-//W3C//DTD SVG 20010904//EN"
 "http://www.w3.org/TR/2001/REC-SVG-20010904/DTD/svg10.dtd">
<svg version="1.0" xmlns="http://www.w3.org/2000/svg"
 width="529.000000pt" height="529.000000pt" viewBox="0 0 529.000000 529.000000"
 preserveAspectRatio="xMidYMid meet">
<metadata>
Created by potrace 1.11, written by Peter Selinger 2001-2013
</metadata>
<g transform="translate(0.000000,529.000000) scale(0.100000,-0.100000)"
fill="#000000" stroke="none">
<path d="M1302 4358 c0 -13 -193 -522 -212 -563 -5 -11 -28 -69 -50 -130 -22
-60 -44 -119 -49 -130 -5 -11 -44 -112 -87 -225 -151 -402 -224 -595 -233
-615 -5 -11 -23 -56 -39 -100 -17 -44 -99 -260 -183 -480 -84 -220 -158 -416
-165 -435 -7 -19 -72 -190 -144 -380 -72 -190 -132 -349 -133 -355 -1 -6 93
-10 266 -11 164 0 267 3 267 9 0 9 54 156 125 337 46 117 223 582 250 655 24
64 271 709 310 810 13 33 78 204 145 380 66 176 125 329 130 340 5 11 53 135
105 275 53 140 107 282 120 315 82 210 115 298 115 306 0 5 -116 9 -268 9
-208 0 -269 -3 -270 -12z"/>
<path d="M2016 3997 c1 -199 2 -365 3 -368 0 -3 34 -18 74 -34 39 -15 133 -51
207 -80 249 -97 875 -338 910 -351 19 -7 193 -74 385 -149 193 -75 355 -138
360 -139 6 -2 19 -7 30 -11 65 -27 359 -140 408 -157 31 -11 57 -21 57 -23 0
-4 -92 -35 -113 -39 -7 -1 -91 -28 -187 -58 -199 -64 -340 -109 -355 -112 -5
-2 -17 -6 -25 -9 -8 -3 -154 -49 -325 -102 -170 -53 -344 -107 -385 -120 -80
-25 -381 -120 -570 -180 -63 -20 -149 -47 -190 -60 -242 -75 -426 -133 -670
-210 -280 -89 -364 -115 -458 -143 -29 -9 -57 -23 -61 -31 -5 -9 -57 -144
-116 -301 -59 -157 -113 -298 -121 -315 -7 -16 -9 -31 -4 -33 4 -2 143 38 307
88 164 50 334 102 378 115 44 14 161 50 260 80 99 31 189 58 200 60 12 3 48
14 80 25 33 11 60 20 60 20 0 -1 7 1 15 4 8 2 166 50 350 106 431 130 996 301
1420 430 184 56 389 117 455 137 66 19 129 39 140 44 11 4 40 14 65 20 25 7
50 14 55 15 101 28 612 188 618 194 7 6 11 435 8 716 l-1 41 -272 107 c-150
60 -286 114 -303 121 -16 7 -554 221 -1195 475 -641 254 -1178 468 -1195 475
-67 28 -261 104 -280 109 -20 6 -20 2 -19 -357z"/>
</g>
</svg>
