<svg width="265" height="42" viewBox="0 0 265 42" fill="none" xmlns="http://www.w3.org/2000/svg">
<path d="M18.2659 17.9039C18.2659 16.2024 17.8146 14.9891 16.9121 14.2641C16.0243 13.539 14.774 13.1765 13.1612 13.1765H6.79146V22.8089H13.1612C14.774 22.8089 16.0243 22.4168 16.9121 21.6326C17.8146 20.8484 18.2659 19.6055 18.2659 17.9039ZM25.0352 17.8595C25.0352 21.7213 24.0586 24.4512 22.1055 26.0492C20.1524 27.6472 17.3633 28.4462 13.7383 28.4462H6.79146V40.2092H0V7.49479H14.2487C17.5335 7.49479 20.1524 8.33818 22.1055 10.0249C24.0586 11.7117 25.0352 14.3232 25.0352 17.8595Z" fill="white"/>
<path d="M40.0634 15.4404C40.1818 15.4404 40.2779 15.4478 40.3519 15.4626C40.4407 15.4626 40.6256 15.4699 40.9068 15.4847V21.9655C40.5073 21.9211 40.1522 21.8915 39.8414 21.8767C39.5307 21.8619 39.2792 21.8545 39.0868 21.8545C36.5419 21.8545 34.8329 22.6831 33.96 24.3403C33.4717 25.2724 33.2275 26.7077 33.2275 28.646V40.2092H26.8578V16.0174H32.8946V20.2343C33.8712 18.6215 34.722 17.5192 35.447 16.9274C36.6307 15.936 38.1695 15.4404 40.0634 15.4404Z" fill="white"/>
<path d="M48.4111 13.1321H41.997V7.29504H48.4111V13.1321ZM41.997 16.0174H48.4111V40.2092H41.997V16.0174Z" fill="white"/>
<path d="M78.8644 15.4847C79.9297 15.4847 80.9802 15.6919 82.016 16.1062C83.0517 16.5205 83.9913 17.2455 84.8346 18.2812C85.5153 19.1246 85.9739 20.1603 86.2107 21.3884C86.3587 22.2022 86.4326 23.3933 86.4326 24.9617L86.3882 40.2092H79.9075V24.8064C79.9075 23.889 79.7595 23.1344 79.4636 22.5425C78.9014 21.418 77.8656 20.8558 76.3564 20.8558C74.6105 20.8558 73.4046 21.5808 72.7387 23.0308C72.3984 23.8002 72.2283 24.725 72.2283 25.8051V40.2092H65.8585V25.8051C65.8585 24.3699 65.7105 23.3267 65.4146 22.6757C64.882 21.5068 63.8388 20.9224 62.2852 20.9224C60.4801 20.9224 59.2668 21.5068 58.6454 22.6757C58.305 23.3415 58.1349 24.3329 58.1349 25.6497V40.2092H51.7207V16.0618H57.8686V19.5907C58.6528 18.333 59.3926 17.4378 60.088 16.9052C61.3161 15.9582 62.9067 15.4847 64.8598 15.4847C66.7093 15.4847 68.2037 15.8916 69.343 16.7054C70.2604 17.46 70.9558 18.4292 71.4293 19.6129C72.2579 18.1925 73.2862 17.1493 74.5143 16.4835C75.8164 15.8177 77.2664 15.4847 78.8644 15.4847Z" fill="white"/>
<path d="M99.0861 20.5894C97.6212 20.5894 96.4819 21.0481 95.6681 21.9655C94.8691 22.8828 94.3661 24.1257 94.1589 25.6941H103.991C103.887 24.0222 103.377 22.7571 102.46 21.8989C101.557 21.0259 100.433 20.5894 99.0861 20.5894ZM99.0861 15.3738C101.098 15.3738 102.911 15.7511 104.524 16.5057C106.136 17.2603 107.468 18.4514 108.519 20.079C109.466 21.5142 110.08 23.1788 110.361 25.0727C110.524 26.1824 110.59 27.7804 110.561 29.8667H94.0036C94.0923 32.2932 94.8543 33.9948 96.2896 34.9713C97.1626 35.578 98.2131 35.8813 99.4412 35.8813C100.743 35.8813 101.801 35.5114 102.615 34.7716C103.059 34.3721 103.451 33.8172 103.791 33.107H110.25C110.087 34.5423 109.34 35.9997 108.008 37.4793C105.937 39.8319 103.037 41.0082 99.308 41.0082C96.2304 41.0082 93.5153 40.0169 91.1627 38.0342C88.8101 36.0515 87.6338 32.8259 87.6338 28.3574C87.6338 24.1701 88.6917 20.9593 90.8076 18.7251C92.9382 16.4909 95.6977 15.3738 99.0861 15.3738Z" fill="white"/>
<path d="M131.665 24.2549H135.665C135.513 22.8609 135.149 21.664 134.574 20.664C133.998 19.6337 133.256 18.7852 132.346 18.1186C131.468 17.4519 130.437 16.9671 129.256 16.6641C128.104 16.3307 126.862 16.1641 125.528 16.1641C123.68 16.1641 122.059 16.4974 120.665 17.1641C119.271 17.8004 118.104 18.6943 117.165 19.8458C116.256 20.967 115.574 22.3004 115.119 23.8458C114.665 25.3609 114.438 26.9973 114.438 28.7548C114.438 30.5124 114.665 32.1336 115.119 33.6184C115.604 35.0729 116.301 36.3305 117.21 37.3911C118.15 38.4517 119.301 39.2698 120.665 39.8456C122.059 40.4213 123.65 40.7092 125.437 40.7092C128.437 40.7092 130.801 39.9213 132.528 38.3456C134.286 36.7699 135.377 34.5275 135.801 31.6184H131.846C131.604 33.4366 130.937 34.8456 129.846 35.8456C128.786 36.8456 127.301 37.3456 125.392 37.3456C124.18 37.3456 123.134 37.1032 122.256 36.6183C121.377 36.1335 120.665 35.4971 120.119 34.7093C119.574 33.8911 119.165 32.9669 118.892 31.9366C118.65 30.9063 118.528 29.8457 118.528 28.7548C118.528 27.573 118.65 26.4367 118.892 25.3458C119.134 24.2246 119.528 23.2397 120.074 22.3913C120.65 21.5428 121.407 20.861 122.347 20.3458C123.286 19.8307 124.453 19.5731 125.847 19.5731C127.483 19.5731 128.786 19.9822 129.756 20.8004C130.725 21.6185 131.362 22.77 131.665 24.2549Z" fill="white"/>
<path d="M140.215 28.4821C140.215 27.0579 140.397 25.8003 140.76 24.7094C141.154 23.5882 141.685 22.6488 142.351 21.8913C143.018 21.1337 143.791 20.5579 144.669 20.164C145.579 19.7701 146.533 19.5731 147.533 19.5731C148.533 19.5731 149.472 19.7701 150.351 20.164C151.26 20.5579 152.048 21.1337 152.715 21.8913C153.381 22.6488 153.897 23.5882 154.26 24.7094C154.654 25.8003 154.851 27.0579 154.851 28.4821C154.851 29.9063 154.654 31.179 154.26 32.3002C153.897 33.3911 153.381 34.3153 152.715 35.0729C152.048 35.8002 151.26 36.3608 150.351 36.7547C149.472 37.1486 148.533 37.3456 147.533 37.3456C146.533 37.3456 145.579 37.1486 144.669 36.7547C143.791 36.3608 143.018 35.8002 142.351 35.0729C141.685 34.3153 141.154 33.3911 140.76 32.3002C140.397 31.179 140.215 29.9063 140.215 28.4821ZM136.124 28.4821C136.124 30.2093 136.367 31.8154 136.851 33.3002C137.336 34.785 138.063 36.088 139.033 37.2092C140.003 38.3001 141.2 39.1638 142.624 39.8001C144.048 40.4062 145.685 40.7092 147.533 40.7092C149.412 40.7092 151.048 40.4062 152.442 39.8001C153.866 39.1638 155.063 38.3001 156.033 37.2092C157.003 36.088 157.73 34.785 158.215 33.3002C158.7 31.8154 158.942 30.2093 158.942 28.4821C158.942 26.7548 158.7 25.1488 158.215 23.664C157.73 22.1488 157.003 20.8458 156.033 19.7549C155.063 18.6337 153.866 17.755 152.442 17.1186C151.048 16.4822 149.412 16.1641 147.533 16.1641C145.685 16.1641 144.048 16.4822 142.624 17.1186C141.2 17.755 140.003 18.6337 139.033 19.7549C138.063 20.8458 137.336 22.1488 136.851 23.664C136.367 25.1488 136.124 26.7548 136.124 28.4821Z" fill="white"/>
<path d="M163.588 28.6639C163.588 27.5124 163.709 26.3912 163.952 25.3003C164.194 24.2094 164.588 23.2397 165.134 22.3913C165.679 21.5428 166.406 20.861 167.315 20.3458C168.225 19.8307 169.331 19.5731 170.634 19.5731C171.967 19.5731 173.103 19.8307 174.043 20.3458C174.982 20.8307 175.74 21.4822 176.315 22.3004C176.921 23.1185 177.361 24.0731 177.633 25.1639C177.906 26.2245 178.043 27.3306 178.043 28.4821C178.043 29.573 177.906 30.6487 177.633 31.7093C177.391 32.7699 176.982 33.7244 176.406 34.5729C175.831 35.3911 175.088 36.0577 174.179 36.5729C173.27 37.088 172.164 37.3456 170.861 37.3456C169.618 37.3456 168.528 37.1032 167.588 36.6183C166.679 36.1335 165.922 35.482 165.315 34.6638C164.74 33.8457 164.3 32.9214 163.997 31.8911C163.725 30.8305 163.588 29.7548 163.588 28.6639ZM181.77 40.2092V7.75509H177.906V19.8458H177.815C177.391 19.1489 176.861 18.5731 176.224 18.1186C175.618 17.6337 174.967 17.255 174.27 16.9822C173.573 16.6792 172.876 16.4671 172.179 16.3459C171.482 16.2247 170.831 16.1641 170.225 16.1641C168.437 16.1641 166.861 16.4974 165.497 17.1641C164.164 17.8004 163.043 18.6792 162.134 19.8004C161.255 20.8913 160.588 22.1791 160.134 23.664C159.709 25.1488 159.497 26.7245 159.497 28.3912C159.497 30.0578 159.725 31.6336 160.179 33.1184C160.634 34.6032 161.3 35.9062 162.179 37.0274C163.088 38.1486 164.209 39.0426 165.543 39.7092C166.906 40.3759 168.497 40.7092 170.315 40.7092C171.952 40.7092 173.452 40.4213 174.815 39.8456C176.179 39.2698 177.179 38.3304 177.815 37.0274H177.906V40.2092H181.77Z" fill="white"/>
<path d="M201.305 26.2094H187.805C187.865 25.3003 188.062 24.4518 188.396 23.664C188.729 22.8458 189.184 22.1337 189.759 21.5276C190.335 20.9216 191.017 20.4519 191.805 20.1186C192.623 19.7549 193.532 19.5731 194.532 19.5731C195.502 19.5731 196.381 19.7549 197.168 20.1186C197.987 20.4519 198.684 20.9216 199.259 21.5276C199.865 22.1034 200.335 22.8003 200.668 23.6185C201.032 24.4367 201.244 25.3003 201.305 26.2094ZM205.032 32.7548H201.214C200.88 34.3002 200.184 35.4517 199.123 36.2093C198.093 36.9668 196.759 37.3456 195.123 37.3456C193.85 37.3456 192.744 37.1335 191.805 36.7093C190.865 36.285 190.093 35.7244 189.487 35.0275C188.881 34.3002 188.441 33.482 188.169 32.5729C187.896 31.6336 187.775 30.6487 187.805 29.6184H205.396C205.456 28.1942 205.32 26.6942 204.986 25.1185C204.683 23.5428 204.108 22.0882 203.259 20.7549C202.441 19.4216 201.335 18.3307 199.941 17.4822C198.577 16.6035 196.85 16.1641 194.759 16.1641C193.153 16.1641 191.668 16.4671 190.305 17.0731C188.972 17.6792 187.805 18.5277 186.805 19.6186C185.835 20.7095 185.078 21.9973 184.532 23.4822C183.987 24.967 183.714 26.6033 183.714 28.3912C183.775 30.179 184.032 31.8305 184.487 33.3457C184.972 34.8608 185.684 36.1638 186.623 37.2547C187.562 38.3456 188.714 39.1941 190.078 39.8001C191.471 40.4062 193.108 40.7092 194.987 40.7092C197.653 40.7092 199.865 40.0425 201.623 38.7092C203.38 37.3759 204.517 35.3911 205.032 32.7548Z" fill="white"/>
<path fill-rule="evenodd" clip-rule="evenodd" d="M216.659 31.4681L228.644 0H233.559L221.531 31.4681H216.659ZM224.526 31.1768L226.857 25.058L257.451 15.4427L235.101 6.81873V0.0501694L265 11.9393V18.8844L224.526 31.1768Z" fill="#7180B9"/>
</svg>
